<?xml version="1.0" standalone="no"?>
<!DOCTYPE svg PUBLIC "-//W3C//DTD SVG 20010904//EN"
 "http://www.w3.org/TR/2001/REC-SVG-20010904/DTD/svg10.dtd">
<svg version="1.0" xmlns="http://www.w3.org/2000/svg"
 width="2000.000000pt" height="2000.000000pt" viewBox="0 0 2000.000000 2000.000000"
 preserveAspectRatio="xMidYMid meet">
<metadata>
Created by potrace 1.11, written by Peter Selinger 2001-2013
</metadata>
<g transform="translate(0.000000,2000.000000) scale(0.100000,-0.100000)"
fill="#000000" stroke="none">
<path d="M10870 17788 c-41 -4 -101 -17 -133 -29 -56 -20 -60 -20 -93 -4 -107
51 -314 5 -551 -121 -134 -71 -218 -124 -531 -333 -161 -108 -303 -203 -317
-211 -22 -14 -465 -311 -860 -578 -99 -67 -187 -127 -195 -132 -8 -6 -73 -50
-145 -98 -71 -48 -249 -168 -395 -267 -146 -98 -299 -202 -340 -230 -41 -28
-181 -123 -310 -210 -129 -88 -266 -181 -305 -207 -38 -26 -146 -100 -240
-163 -93 -64 -231 -157 -305 -208 -74 -51 -200 -137 -280 -192 -80 -54 -179
-122 -220 -150 -41 -29 -192 -132 -335 -230 -143 -98 -280 -193 -305 -210 -44
-31 -225 -155 -326 -225 -80 -55 -724 -501 -774 -537 -25 -17 -94 -66 -155
-108 -60 -42 -144 -100 -185 -129 -161 -113 -627 -441 -662 -465 -20 -14 -127
-91 -238 -171 -111 -80 -231 -165 -265 -190 -176 -126 -295 -212 -594 -430
-34 -25 -202 -150 -373 -278 -282 -211 -349 -263 -458 -351 -19 -16 -73 -59
-120 -96 -215 -172 -378 -330 -438 -423 -50 -78 -109 -212 -164 -369 -22 -65
-41 -122 -43 -128 -1 -5 -4 -17 -7 -25 -14 -38 -75 -263 -84 -310 -3 -14 -13
-68 -24 -120 -17 -87 -25 -135 -36 -215 -11 -84 -24 -197 -29 -250 -3 -33 -7
-80 -10 -105 -35 -366 -16 -1062 40 -1455 3 -22 8 -53 10 -70 10 -70 17 -115
31 -195 23 -129 22 -126 55 -265 16 -71 34 -148 39 -170 18 -82 92 -302 121
-360 37 -76 46 -87 93 -119 49 -33 106 -34 167 -3 l45 22 34 -59 c67 -113 226
-255 415 -368 111 -66 580 -300 1578 -787 l249 -121 -21 -28 c-11 -15 -36 -62
-57 -103 -91 -181 -173 -252 -474 -406 -96 -49 -222 -120 -280 -158 -93 -62
-426 -300 -505 -362 -38 -30 -24 -19 -203 -151 -385 -285 -639 -417 -811 -424
-55 -2 -49 -16 21 -50 88 -43 163 -60 298 -65 144 -6 248 6 398 48 167 47 271
93 812 362 489 242 625 305 749 348 l55 19 -21 -22 c-26 -30 -268 -321 -313
-377 -19 -24 -42 -51 -50 -60 -8 -9 -31 -37 -50 -61 -19 -25 -37 -47 -41 -50
-3 -3 -32 -41 -65 -85 -84 -114 -153 -260 -195 -415 -7 -25 -14 -49 -15 -55
-12 -44 -54 -273 -59 -325 -4 -36 -9 -81 -11 -100 -3 -19 -7 -102 -10 -185
l-6 -150 79 120 c92 139 242 343 268 365 11 8 -4 -14 -32 -50 -50 -65 -219
-311 -262 -382 -44 -74 -12 -36 89 104 57 79 128 175 159 213 61 77 233 287
241 295 3 3 39 43 80 89 158 178 459 439 955 826 333 260 439 371 540 563 21
39 43 72 48 72 6 0 51 -20 101 -44 50 -24 143 -69 206 -99 63 -30 187 -90 275
-133 88 -43 162 -78 165 -79 5 -1 77 -36 345 -165 83 -40 195 -94 250 -120 55
-26 163 -78 240 -115 77 -37 176 -84 220 -105 44 -21 141 -67 215 -102 177
-85 286 -137 390 -186 47 -22 148 -70 225 -107 77 -37 172 -82 210 -100 199
-93 259 -122 355 -167 58 -28 137 -65 175 -83 130 -60 250 -116 287 -133 21
-9 38 -23 38 -29 0 -32 76 -93 180 -147 61 -31 112 -56 115 -56 3 0 22 -7 43
-16 257 -109 700 -273 1032 -383 400 -131 372 -125 570 -126 170 0 177 1 242
28 175 75 695 462 1103 821 44 39 104 91 133 116 144 121 212 199 212 242 0
16 15 37 48 65 26 23 56 50 67 60 11 10 106 95 210 188 105 93 192 172 195
175 3 3 41 36 85 75 44 38 82 72 85 76 3 3 68 61 145 129 77 69 158 141 180
161 22 20 148 132 280 249 132 117 256 227 275 244 19 18 78 70 130 116 52 46
97 87 100 90 3 3 41 36 85 75 44 38 91 80 105 92 65 57 88 78 125 112 22 20
74 65 115 101 41 36 80 70 85 76 6 5 46 41 90 80 44 38 84 74 90 80 5 5 46 41
90 80 44 38 85 74 91 79 23 21 170 152 219 195 68 60 203 180 231 205 12 11
33 29 45 40 61 53 468 412 499 441 19 18 62 56 95 85 70 61 202 178 225 199 9
8 47 42 85 75 39 33 72 62 75 65 3 3 104 93 225 200 121 107 222 197 225 200
3 3 37 32 75 65 39 33 72 62 75 65 11 11 110 99 180 160 41 36 95 83 120 106
47 42 87 78 181 160 108 96 202 179 213 189 6 6 45 39 86 75 41 36 82 72 90
80 13 13 196 175 295 261 46 40 219 193 231 204 11 10 113 100 213 189 31 27
73 64 94 83 20 19 46 36 56 38 38 7 109 45 182 97 114 82 108 77 493 452 158
154 325 316 370 359 250 240 428 426 449 467 26 53 29 138 8 213 -19 65 -86
134 -176 178 -38 18 -279 104 -535 189 l-465 155 -5 40 c-12 100 -4 365 15
480 7 42 16 96 21 120 14 76 219 642 316 870 11 28 24 59 29 70 130 311 148
348 185 377 13 11 30 25 37 32 6 7 170 146 362 310 512 435 519 441 580 521
65 86 85 136 85 215 0 87 -20 131 -87 190 -68 60 -162 102 -748 335 -286 113
-529 210 -540 215 -11 5 -103 41 -205 80 -102 39 -194 75 -205 80 -140 64
-255 102 -303 102 -41 0 -78 10 -160 45 -59 24 -201 83 -317 130 -115 47 -223
91 -240 98 -16 7 -84 34 -150 60 -66 26 -129 51 -140 56 -35 15 -378 151 -440
174 -33 13 -121 46 -195 75 -206 80 -336 130 -560 215 -113 42 -250 94 -305
115 -55 21 -145 55 -200 75 -55 20 -116 43 -135 51 -32 12 -414 153 -695 255
-60 22 -126 47 -145 54 -39 15 -463 168 -777 281 -71 25 -150 54 -178 64 -27
10 -129 47 -225 81 -96 34 -188 67 -205 74 -16 7 -41 16 -55 20 -14 4 -90 31
-170 60 -715 262 -1182 412 -1365 439 -23 4 -52 9 -65 11 -86 17 -221 23 -320
13z m-8449 -14791 c-10 -9 -11 -8 -5 6 3 10 9 15 12 12 3 -3 0 -11 -7 -18z"/>
</g>
</svg>
